<?xml version="1.0" encoding="UTF-8" standalone="no"?>
<!DOCTYPE svg PUBLIC "-//W3C//DTD SVG 1.1//EN" "http://www.w3.org/Graphics/SVG/1.1/DTD/svg11.dtd">
<svg width="100%" height="100%" viewBox="0 0 1640 700" version="1.1" xmlns="http://www.w3.org/2000/svg" xmlns:xlink="http://www.w3.org/1999/xlink" xml:space="preserve" xmlns:serif="http://www.serif.com/" style="fill-rule:evenodd;clip-rule:evenodd;stroke-linejoin:round;stroke-miterlimit:2;">
    <path d="M550,250L550,200L590,200L590,210L560,210L560,250L550,250ZM500,250L550,250L550,260L500,260L500,250ZM650,250L650,330L640,330L640,250L650,250ZM590,200L590,110L690,110L690,250L650,250L650,240L680,240L680,120L600,120L600,200L590,200ZM400,330L400,110L500,110L500,250L490,250L490,120L410,120L410,330L400,330ZM740,330L740,110L990,110L990,160L980,160L980,120L750,120L750,330L740,330ZM990,160L1030,160L1030,330L1020,330L1020,170L990,170L990,160ZM1230,250L1230,330L1220,330L1220,250L1230,250ZM1130,330L1130,200L1180,200L1180,210L1140,210L1140,330L1130,330ZM1180,200L1180,110L1280,110L1280,250L1230,250L1230,240L1270,240L1270,120L1190,120L1190,200L1180,200ZM310,260L310,330L300,330L300,260L310,260ZM210,250L210,200L260,200L260,210L220,210L220,250L210,250ZM210,250L210,260L170,260L170,330L160,330L160,250L210,250ZM260,200L260,160L360,160L360,260L310,260L310,250L350,250L350,170L270,170L270,200L260,200ZM1470,250L1520,250L1520,330L1510,330L1510,260L1470,260L1470,250ZM1420,200L1470,200L1470,250L1460,250L1460,210L1420,210L1420,200ZM1370,260L1380,260L1380,330L1370,330L1370,260ZM1320,260L1320,160L1420,160L1420,200L1410,200L1410,170L1330,170L1330,250L1370,250L1370,260L1320,260ZM840,210L840,200L930,200L930,210L840,210ZM930,210L940,210L940,330L930,330L930,210ZM840,210L840,330L830,330L830,210L840,210Z" style="fill:rgb(171,255,167);"/>
    <path d="M490,340L490,350L480,350L480,340L490,340ZM570,340L570,350L560,350L560,340L570,340ZM460,340L470,340L470,350L460,350L460,340ZM600,360L610,360L610,370L600,370L600,360ZM590,360L590,370L580,370L580,360L590,360ZM620,340L630,340L630,350L620,350L620,340ZM440,360L450,360L450,370L440,370L440,360ZM430,360L430,370L420,370L420,360L430,360ZM410,220L410,120L490,120L490,150L480,150L480,160L490,160L490,190L480,190L480,200L490,200L490,210L480,210L480,220L490,220L490,230L480,230L480,240L490,240L490,250L480,250L480,260L490,260L490,270L480,270L480,280L470,280L470,270L460,270L460,260L470,260L470,250L460,250L460,260L450,260L450,250L440,250L440,260L450,260L450,270L440,270L440,280L430,280L430,270L420,270L420,260L430,260L430,250L420,250L420,260L410,260L410,230L420,230L420,240L430,240L430,230L420,230L420,220L430,220L430,210L420,210L420,220L410,220ZM490,250L500,250L500,260L490,260L490,250ZM500,260L530,260L530,270L520,270L520,280L510,280L510,270L500,270L500,260ZM530,270L540,270L540,280L550,280L550,290L540,290L540,300L530,300L530,290L520,290L520,280L530,280L530,270ZM540,270L540,260L550,260L550,250L560,250L560,260L570,260L570,270L560,270L560,280L550,280L550,270L540,270ZM560,250L560,240L570,240L570,230L580,230L580,240L590,240L590,230L580,230L580,220L590,220L590,200L610,200L610,190L600,190L600,160L610,160L610,150L600,150L600,120L680,120L680,240L670,240L670,230L660,230L660,220L670,220L670,210L660,210L660,220L650,220L650,210L640,210L640,220L650,220L650,230L640,230L640,240L650,240L650,250L640,250L640,280L630,280L630,270L620,270L620,260L630,260L630,250L620,250L620,260L610,260L610,250L600,250L600,260L610,260L610,270L600,270L600,280L590,280L590,270L580,270L580,260L590,260L590,250L580,250L580,260L570,260L570,250L560,250ZM570,230L560,230L560,220L570,220L570,230ZM570,220L570,210L580,210L580,220L570,220ZM660,230L660,240L650,240L650,230L660,230ZM630,280L630,290L620,290L620,300L610,300L610,290L600,290L600,280L610,280L610,270L620,270L620,280L630,280ZM630,290L640,290L640,300L630,300L630,290ZM630,300L630,310L620,310L620,300L630,300ZM630,310L640,310L640,320L630,320L630,310ZM630,320L630,330L620,330L620,320L630,320ZM620,330L620,340L610,340L610,330L620,330ZM610,340L610,350L600,350L600,340L610,340ZM600,350L600,360L590,360L590,350L600,350ZM590,350L580,350L580,340L590,340L590,350ZM580,340L570,340L570,330L580,330L580,340ZM570,330L560,330L560,320L570,320L570,330ZM560,320L550,320L550,310L560,310L560,320ZM550,320L550,330L540,330L540,320L550,320ZM540,330L540,340L530,340L530,330L540,330ZM530,330L520,330L520,320L530,320L530,330ZM520,330L520,340L510,340L510,330L520,330ZM510,330L500,330L500,320L510,320L510,330ZM500,330L500,340L490,340L490,330L500,330ZM490,330L480,330L480,320L490,320L490,330ZM480,320L470,320L470,310L480,310L480,320ZM470,320L470,330L460,330L460,320L470,320ZM460,330L460,340L450,340L450,330L460,330ZM450,340L450,350L440,350L440,340L450,340ZM440,350L440,360L430,360L430,350L440,350ZM430,350L420,350L420,340L430,340L430,350ZM420,340L410,340L410,330L420,330L420,340ZM420,330L420,320L430,320L430,330L420,330ZM430,320L430,310L440,310L440,320L430,320ZM430,310L420,310L420,300L430,300L430,310ZM420,300L410,300L410,290L420,290L420,300ZM420,290L420,280L430,280L430,290L420,290ZM420,280L410,280L410,270L420,270L420,280ZM450,150L440,150L440,160L450,160L450,150ZM470,170L460,170L460,180L470,180L470,170ZM470,240L470,230L460,230L460,240L470,240ZM470,220L470,210L460,210L460,220L470,220ZM470,200L470,190L460,190L460,200L470,200ZM600,210L600,220L610,220L610,210L600,210ZM600,230L600,240L610,240L610,230L600,230ZM620,170L620,180L630,180L630,170L620,170ZM620,190L620,200L630,200L630,190L620,190ZM620,210L620,220L630,220L630,210L620,210ZM620,230L620,240L630,240L630,230L620,230ZM640,150L640,160L650,160L650,150L640,150ZM650,200L650,190L640,190L640,200L650,200ZM440,190L440,200L450,200L450,190L440,190ZM450,220L450,210L440,210L440,220L450,220ZM450,240L450,230L440,230L440,240L450,240ZM480,280L490,280L490,290L480,290L480,280ZM490,280L490,270L500,270L500,280L490,280ZM470,280L470,290L460,290L460,300L450,300L450,290L440,290L440,280L450,280L450,270L460,270L460,280L470,280ZM470,290L480,290L480,300L470,300L470,290ZM500,280L510,280L510,290L500,290L500,280ZM540,300L550,300L550,310L540,310L540,300ZM550,300L550,290L560,290L560,300L550,300ZM530,300L530,310L520,310L520,300L530,300ZM520,310L520,320L510,320L510,310L520,310ZM520,290L520,300L510,300L510,290L520,290ZM560,280L570,280L570,290L560,290L560,280ZM570,280L570,270L580,270L580,280L570,280ZM590,280L590,290L580,290L580,280L590,280ZM590,290L600,290L600,300L590,300L590,290ZM610,300L610,310L600,310L600,300L610,300ZM600,310L600,320L590,320L590,310L600,310ZM600,320L610,320L610,330L600,330L600,320ZM600,330L600,340L590,340L590,330L600,330ZM590,330L580,330L580,320L590,320L590,330ZM590,310L580,310L580,300L590,300L590,310ZM580,300L570,300L570,290L580,290L580,300ZM570,300L570,310L560,310L560,300L570,300ZM510,310L500,310L500,300L510,300L510,310ZM500,300L490,300L490,290L500,290L500,300ZM490,300L490,310L480,310L480,300L490,300ZM470,310L460,310L460,300L470,300L470,310ZM450,300L450,310L440,310L440,300L450,300ZM440,320L450,320L450,330L440,330L440,320ZM440,330L440,340L430,340L430,330L440,330ZM440,300L430,300L430,290L440,290L440,300ZM1210,340L1210,350L1200,350L1200,340L1210,340ZM1210,330L1220,330L1220,340L1210,340L1210,330ZM1200,320L1210,320L1210,330L1200,330L1200,320ZM1180,340L1190,340L1190,350L1180,350L1180,340ZM1150,230L1140,230L1140,220L1150,220L1150,210L1160,210L1160,220L1170,220L1170,210L1180,210L1180,220L1190,220L1190,210L1180,210L1180,200L1190,200L1190,120L1270,120L1270,170L1260,170L1260,180L1270,180L1270,190L1260,190L1260,200L1270,200L1270,210L1260,210L1260,220L1270,220L1270,230L1260,230L1260,240L1250,240L1250,230L1240,230L1240,240L1230,240L1230,230L1220,230L1220,220L1230,220L1230,210L1220,210L1220,220L1210,220L1210,210L1200,210L1200,220L1210,220L1210,230L1200,230L1200,240L1210,240L1210,230L1220,230L1220,240L1230,240L1230,250L1220,250L1220,260L1210,260L1210,250L1200,250L1200,260L1210,260L1210,270L1200,270L1200,280L1190,280L1190,270L1180,270L1180,260L1190,260L1190,250L1180,250L1180,260L1170,260L1170,250L1160,250L1160,260L1170,260L1170,270L1160,270L1160,280L1150,280L1150,270L1140,270L1140,260L1150,260L1150,250L1140,250L1140,240L1150,240L1150,230ZM1210,270L1220,270L1220,280L1210,280L1210,270ZM1210,280L1210,290L1200,290L1200,280L1210,280ZM1210,290L1220,290L1220,300L1210,300L1210,290ZM1210,300L1210,310L1200,310L1200,300L1210,300ZM1200,310L1200,320L1190,320L1190,310L1200,310ZM1190,320L1190,330L1180,330L1180,320L1190,320ZM1180,330L1180,340L1170,340L1170,330L1180,330ZM1170,340L1170,350L1160,350L1160,340L1170,340ZM1160,350L1160,360L1150,360L1150,350L1160,350ZM1150,350L1140,350L1140,340L1150,340L1150,350ZM1150,340L1150,330L1160,330L1160,340L1150,340ZM1150,330L1140,330L1140,320L1150,320L1150,330ZM1150,320L1150,310L1160,310L1160,320L1150,320ZM1150,310L1140,310L1140,300L1150,300L1150,310ZM1150,300L1150,290L1160,290L1160,300L1150,300ZM1150,290L1140,290L1140,280L1150,280L1150,290ZM1160,230L1160,240L1170,240L1170,230L1160,230ZM1180,230L1180,240L1190,240L1190,230L1180,230ZM1200,150L1200,160L1210,160L1210,150L1200,150ZM1200,190L1200,200L1210,200L1210,190L1200,190ZM1250,150L1240,150L1240,160L1250,160L1250,150ZM1250,220L1250,210L1240,210L1240,220L1250,220ZM1250,200L1250,190L1240,190L1240,200L1250,200ZM1160,280L1170,280L1170,270L1180,270L1180,280L1190,280L1190,290L1180,290L1180,300L1170,300L1170,290L1160,290L1160,280ZM1190,290L1200,290L1200,300L1190,300L1190,290ZM1190,300L1190,310L1180,310L1180,300L1190,300ZM1170,300L1170,310L1160,310L1160,300L1170,300ZM1160,320L1170,320L1170,330L1160,330L1160,320ZM1150,360L1150,370L1140,370L1140,360L1150,360ZM1160,360L1170,360L1170,370L1160,370L1160,360ZM250,340L250,350L240,350L240,340L250,340ZM280,360L290,360L290,370L280,370L280,360ZM220,340L230,340L230,350L220,350L220,340ZM270,360L270,370L260,370L260,360L270,360ZM180,280L170,280L170,270L180,270L180,280ZM180,270L180,260L210,260L210,270L200,270L200,280L190,280L190,270L180,270ZM210,260L210,250L220,250L220,260L210,260ZM220,250L220,240L230,240L230,230L220,230L220,220L230,220L230,210L240,210L240,220L250,220L250,230L240,230L240,240L250,240L250,230L260,230L260,240L270,240L270,230L260,230L260,220L270,220L270,210L260,210L260,200L270,200L270,170L300,170L300,180L310,180L310,170L350,170L350,210L340,210L340,220L330,220L330,210L320,210L320,220L330,220L330,230L320,230L320,240L330,240L330,230L340,230L340,240L350,240L350,250L300,250L300,260L290,260L290,250L280,250L280,260L290,260L290,270L280,270L280,280L270,280L270,270L260,270L260,260L270,260L270,250L260,250L260,260L250,260L250,250L240,250L240,260L250,260L250,270L240,270L240,280L230,280L230,270L220,270L220,260L230,260L230,250L220,250ZM250,220L250,210L260,210L260,220L250,220ZM340,220L350,220L350,230L340,230L340,220ZM290,270L300,270L300,300L290,300L290,290L280,290L280,280L290,280L290,270ZM290,300L290,310L280,310L280,300L290,300ZM280,310L280,320L270,320L270,310L280,310ZM280,320L290,320L290,330L280,330L280,320ZM290,330L300,330L300,340L290,340L290,330ZM290,340L290,350L280,350L280,340L290,340ZM280,350L280,360L270,360L270,350L280,350ZM270,350L260,350L260,340L270,340L270,350ZM260,340L250,340L250,330L260,330L260,340ZM250,330L240,330L240,320L250,320L250,330ZM240,320L230,320L230,310L240,310L240,320ZM230,320L230,330L220,330L220,320L230,320ZM220,330L220,340L210,340L210,330L220,330ZM210,330L200,330L200,320L210,320L210,330ZM200,330L200,340L190,340L190,330L200,330ZM190,330L180,330L180,320L190,320L190,330ZM190,320L190,310L200,310L200,320L190,320ZM190,310L180,310L180,300L190,300L190,310ZM180,300L170,300L170,290L180,290L180,300ZM180,290L180,280L190,280L190,290L180,290ZM210,270L220,270L220,280L230,280L230,290L220,290L220,300L210,300L210,290L200,290L200,280L210,280L210,270ZM190,290L200,290L200,300L190,300L190,290ZM270,280L270,290L260,290L260,280L270,280ZM270,290L280,290L280,300L270,300L270,290ZM260,270L260,280L250,280L250,270L260,270ZM240,280L250,280L250,290L240,290L240,280ZM230,290L240,290L240,300L230,300L230,290ZM270,300L270,310L260,310L260,300L270,300ZM270,320L270,330L260,330L260,320L270,320ZM270,330L280,330L280,340L270,340L270,330ZM260,300L250,300L250,290L260,290L260,300ZM250,300L250,310L240,310L240,300L250,300ZM230,310L220,310L220,300L230,300L230,310ZM210,300L210,310L200,310L200,300L210,300ZM180,330L180,340L170,340L170,330L180,330ZM310,190L300,190L300,200L310,200L310,190ZM310,220L310,210L300,210L300,220L310,220ZM280,230L280,240L290,240L290,230L280,230ZM310,240L310,230L300,230L300,240L310,240ZM280,210L280,220L290,220L290,210L280,210ZM280,190L280,200L290,200L290,190L280,190ZM330,190L320,190L320,200L330,200L330,190ZM810,330L820,330L820,340L810,340L810,330ZM810,340L810,350L800,350L800,340L810,340ZM820,330L820,320L830,320L830,330L820,330ZM970,340L970,350L960,350L960,340L970,340ZM1000,360L1010,360L1010,370L1000,370L1000,360ZM820,340L830,340L830,350L820,350L820,340ZM950,320L950,330L940,330L940,320L950,320ZM990,360L990,370L980,370L980,360L990,360ZM820,300L830,300L830,310L820,310L820,300ZM760,350L760,360L750,360L750,350L760,350ZM750,280L750,120L980,120L980,160L990,160L990,170L1020,170L1020,260L1010,260L1010,250L1000,250L1000,260L1010,260L1010,270L1000,270L1000,280L990,280L990,270L980,270L980,260L990,260L990,250L980,250L980,260L970,260L970,250L960,250L960,260L970,260L970,270L960,270L960,280L950,280L950,270L940,270L940,260L950,260L950,250L940,250L940,240L950,240L950,230L940,230L940,220L950,220L950,210L930,210L930,190L920,190L920,200L890,200L890,190L880,190L880,200L870,200L870,190L860,190L860,200L850,200L850,190L840,190L840,210L820,210L820,220L810,220L810,210L800,210L800,220L810,220L810,230L800,230L800,240L810,240L810,230L820,230L820,240L830,240L830,250L820,250L820,260L810,260L810,250L800,250L800,260L810,260L810,270L800,270L800,280L790,280L790,270L780,270L780,260L790,260L790,250L780,250L780,260L770,260L770,250L760,250L760,260L770,260L770,270L760,270L760,280L750,280ZM1010,270L1020,270L1020,300L1010,300L1010,290L1000,290L1000,280L1010,280L1010,270ZM1010,300L1010,310L1000,310L1000,300L1010,300ZM1000,310L1000,320L990,320L990,310L1000,310ZM1000,320L1010,320L1010,330L1000,330L1000,320ZM1010,330L1020,330L1020,340L1010,340L1010,330ZM1010,340L1010,350L1000,350L1000,340L1010,340ZM1000,350L1000,360L990,360L990,350L1000,350ZM990,350L980,350L980,340L990,340L990,350ZM980,340L970,340L970,330L980,330L980,340ZM970,330L960,330L960,320L970,320L970,330ZM960,320L950,320L950,310L960,310L960,320ZM950,310L940,310L940,300L950,300L950,310ZM950,300L950,290L960,290L960,300L950,300ZM950,290L940,290L940,280L950,280L950,290ZM820,220L830,220L830,230L820,230L820,220ZM820,260L830,260L830,270L820,270L820,260ZM820,270L820,280L810,280L810,270L820,270ZM820,280L830,280L830,290L820,290L820,280ZM820,290L820,300L810,300L810,290L820,290ZM810,300L810,310L800,310L800,300L810,300ZM800,310L800,320L790,320L790,310L800,310ZM790,320L790,330L780,330L780,320L790,320ZM780,330L780,340L770,340L770,330L780,330ZM770,340L770,350L760,350L760,340L770,340ZM760,340L750,340L750,330L760,330L760,340ZM760,330L760,320L770,320L770,330L760,330ZM760,320L750,320L750,310L760,310L760,320ZM760,310L760,300L770,300L770,310L760,310ZM760,300L750,300L750,290L760,290L760,300ZM760,290L760,280L770,280L770,270L780,270L780,280L790,280L790,290L780,290L780,300L770,300L770,290L760,290ZM970,150L960,150L960,160L970,160L970,150ZM930,150L920,150L920,160L930,160L930,150ZM890,150L880,150L880,160L890,160L890,150ZM850,150L840,150L840,160L850,160L850,150ZM810,150L800,150L800,160L810,160L810,150ZM770,150L760,150L760,160L770,160L770,150ZM980,210L980,220L970,220L970,210L960,210L960,220L970,220L970,230L960,230L960,240L970,240L970,230L980,230L980,240L990,240L990,230L980,230L980,220L990,220L990,210L980,210ZM970,200L970,190L960,190L960,200L970,200ZM1010,190L1000,190L1000,200L1010,200L1010,190ZM1010,240L1010,230L1000,230L1000,240L1010,240ZM1010,220L1010,210L1000,210L1000,220L1010,220ZM950,200L950,190L940,190L940,200L950,200ZM950,180L950,170L940,170L940,180L950,180ZM870,180L870,170L860,170L860,180L870,180ZM810,200L810,190L800,190L800,200L810,200ZM760,190L760,200L770,200L770,190L760,190ZM760,210L760,220L770,220L770,210L760,210ZM760,230L760,240L770,240L770,230L760,230ZM790,170L780,170L780,180L790,180L790,170ZM1000,290L1000,300L990,300L990,290L1000,290ZM990,300L990,310L980,310L980,300L990,300ZM990,320L990,330L980,330L980,320L990,320ZM990,330L1000,330L1000,340L990,340L990,330ZM980,300L970,300L970,290L980,290L980,300ZM970,300L970,310L960,310L960,300L970,300ZM960,290L960,280L970,280L970,290L960,290ZM970,280L970,270L980,270L980,280L970,280ZM810,280L810,290L800,290L800,280L810,280ZM800,290L800,300L790,300L790,290L800,290ZM790,300L790,310L780,310L780,300L790,300ZM780,230L780,240L790,240L790,230L780,230ZM780,210L780,220L790,220L790,210L780,210ZM780,190L780,200L790,200L790,190L780,190ZM980,280L990,280L990,290L980,290L980,280ZM800,320L810,320L810,330L800,330L800,320ZM780,340L790,340L790,350L780,350L780,340ZM760,360L770,360L770,370L760,370L760,360ZM1500,270L1500,260L1510,260L1510,270L1500,270ZM1450,220L1450,210L1460,210L1460,220L1450,220ZM1490,330L1500,330L1500,340L1490,340L1490,330ZM1500,330L1500,320L1510,320L1510,330L1500,330ZM1500,300L1510,300L1510,310L1500,310L1500,300ZM1450,340L1450,350L1440,350L1440,340L1450,340ZM1420,340L1430,340L1430,350L1420,350L1420,340ZM1400,360L1410,360L1410,370L1400,370L1400,360ZM1390,360L1390,370L1380,370L1380,360L1390,360ZM1370,250L1330,250L1330,170L1340,170L1340,180L1350,180L1350,170L1410,170L1410,190L1400,190L1400,200L1420,200L1420,220L1430,220L1430,210L1440,210L1440,220L1450,220L1450,230L1440,230L1440,240L1450,240L1450,230L1460,230L1460,260L1450,260L1450,250L1440,250L1440,260L1450,260L1450,270L1440,270L1440,280L1430,280L1430,270L1420,270L1420,260L1430,260L1430,250L1420,250L1420,260L1410,260L1410,250L1400,250L1400,260L1410,260L1410,270L1400,270L1400,280L1390,280L1390,270L1380,270L1380,260L1390,260L1390,250L1380,250L1380,260L1370,260L1370,250ZM1460,260L1490,260L1490,270L1480,270L1480,280L1470,280L1470,270L1460,270L1460,260ZM1490,270L1500,270L1500,280L1510,280L1510,290L1500,290L1500,300L1490,300L1490,290L1480,290L1480,280L1490,280L1490,270ZM1490,300L1490,310L1480,310L1480,300L1490,300ZM1480,310L1480,320L1470,320L1470,310L1480,310ZM1480,320L1490,320L1490,330L1480,330L1480,320ZM1480,330L1480,340L1470,340L1470,330L1480,330ZM1470,340L1470,350L1460,350L1460,340L1470,340ZM1460,340L1450,340L1450,330L1460,330L1460,340ZM1450,330L1440,330L1440,320L1450,320L1450,330ZM1440,320L1430,320L1430,310L1440,310L1440,320ZM1430,320L1430,330L1420,330L1420,320L1430,320ZM1420,330L1420,340L1410,340L1410,330L1420,330ZM1410,340L1410,350L1400,350L1400,340L1410,340ZM1400,350L1400,360L1390,360L1390,350L1400,350ZM1390,350L1380,350L1380,340L1390,340L1390,350ZM1390,340L1390,330L1400,330L1400,340L1390,340ZM1390,330L1380,330L1380,320L1390,320L1390,330ZM1390,320L1390,310L1400,310L1400,320L1390,320ZM1390,310L1380,310L1380,300L1390,300L1390,310ZM1390,300L1390,290L1400,290L1400,300L1390,300ZM1390,290L1380,290L1380,280L1390,280L1390,290ZM1340,190L1340,200L1350,200L1350,190L1340,190ZM1340,210L1340,220L1350,220L1350,210L1340,210ZM1340,230L1340,240L1350,240L1350,230L1340,230ZM1370,190L1360,190L1360,200L1370,200L1370,190ZM1390,210L1380,210L1380,220L1370,220L1370,210L1360,210L1360,220L1370,220L1370,230L1360,230L1360,240L1370,240L1370,230L1380,230L1380,240L1390,240L1390,230L1380,230L1380,220L1390,220L1390,210ZM1410,210L1400,210L1400,220L1410,220L1410,210ZM1420,230L1420,240L1430,240L1430,230L1420,230ZM1410,240L1410,230L1400,230L1400,240L1410,240ZM1410,270L1420,270L1420,280L1430,280L1430,290L1420,290L1420,300L1410,300L1410,290L1400,290L1400,280L1410,280L1410,270ZM1440,280L1450,280L1450,290L1440,290L1440,280ZM1450,280L1450,270L1460,270L1460,280L1450,280ZM1430,290L1440,290L1440,300L1430,300L1430,290ZM1460,280L1470,280L1470,290L1460,290L1460,280ZM1480,290L1480,300L1470,300L1470,290L1480,290ZM1470,300L1470,310L1460,310L1460,300L1470,300ZM1470,320L1470,330L1460,330L1460,320L1470,320ZM1460,300L1450,300L1450,290L1460,290L1460,300ZM1450,300L1450,310L1440,310L1440,300L1450,300ZM1430,310L1420,310L1420,300L1430,300L1430,310ZM1410,300L1410,310L1400,310L1400,300L1410,300ZM1400,320L1410,320L1410,330L1400,330L1400,320ZM230,360L230,370L220,370L220,360L230,360ZM250,360L250,370L240,370L240,360L250,360ZM310,360L310,370L300,370L300,360L310,360ZM330,360L330,370L320,370L320,360L330,360ZM350,360L350,370L340,370L340,360L350,360ZM230,380L230,390L220,390L220,380L230,380ZM270,380L270,390L260,390L260,380L270,380ZM290,380L290,390L280,390L280,380L290,380ZM310,380L310,390L300,390L300,380L310,380ZM350,380L350,390L340,390L340,380L350,380ZM290,400L290,410L280,410L280,400L290,400ZM310,400L310,410L300,410L300,400L310,400ZM330,400L330,410L320,410L320,400L330,400ZM350,400L350,410L340,410L340,400L350,400ZM310,420L310,430L300,430L300,420L310,420ZM350,420L350,430L340,430L340,420L350,420ZM950,340L950,350L940,350L940,340L950,340ZM470,360L470,370L460,370L460,360L470,360ZM490,360L490,370L480,370L480,360L490,360ZM570,360L570,370L560,370L560,360L570,360ZM630,360L630,370L620,370L620,360L630,360ZM650,360L650,370L640,370L640,360L650,360ZM670,360L670,370L660,370L660,360L670,360ZM790,360L790,370L780,370L780,360L790,360ZM810,360L810,370L800,370L800,360L810,360ZM830,360L830,370L820,370L820,360L830,360ZM950,360L950,370L940,370L940,360L950,360ZM970,360L970,370L960,370L960,360L970,360ZM1110,360L1110,370L1100,370L1100,360L1110,360ZM1130,360L1130,370L1120,370L1120,360L1130,360ZM1190,360L1190,370L1180,370L1180,360L1190,360ZM1210,360L1210,370L1200,370L1200,360L1210,360ZM1350,360L1350,370L1340,370L1340,360L1350,360ZM1370,360L1370,370L1360,370L1360,360L1370,360ZM1430,360L1430,370L1420,370L1420,360L1430,360ZM1450,360L1450,370L1440,370L1440,360L1450,360ZM430,380L430,390L420,390L420,380L430,380ZM450,380L450,390L440,390L440,380L450,380ZM470,380L470,390L460,390L460,380L470,380ZM590,380L590,390L580,390L580,380L590,380ZM610,380L610,390L600,390L600,380L610,380ZM630,380L630,390L620,390L620,380L630,380ZM670,380L670,390L660,390L660,380L670,380ZM770,380L770,390L760,390L760,380L770,380ZM790,380L790,390L780,390L780,380L790,380ZM830,380L830,390L820,390L820,380L830,380ZM950,380L950,390L940,390L940,380L950,380ZM990,380L990,390L980,390L980,380L990,380ZM1010,380L1010,390L1000,390L1000,380L1010,380ZM1110,380L1110,390L1100,390L1100,380L1110,380ZM1150,380L1150,390L1140,390L1140,380L1150,380ZM1170,380L1170,390L1160,390L1160,380L1170,380ZM1190,380L1190,390L1180,390L1180,380L1190,380ZM1350,380L1350,390L1340,390L1340,380L1350,380ZM1390,380L1390,390L1380,390L1380,380L1390,380ZM1410,380L1410,390L1400,390L1400,380L1410,380ZM1430,380L1430,390L1420,390L1420,380L1430,380ZM430,400L430,410L420,410L420,400L430,400ZM450,400L450,410L440,410L440,400L450,400ZM470,400L470,410L460,410L460,400L470,400ZM490,400L490,410L480,410L480,400L490,400ZM610,400L610,410L600,410L600,400L610,400ZM630,400L630,410L620,410L620,400L630,400ZM650,400L650,410L640,410L640,400L650,400ZM670,400L670,410L660,410L660,400L670,400ZM770,400L770,410L760,410L760,400L770,400ZM790,400L790,410L780,410L780,400L790,400ZM810,400L810,410L800,410L800,400L810,400ZM830,400L830,410L820,410L820,400L830,400ZM950,400L950,410L940,410L940,400L950,400ZM970,400L970,410L960,410L960,400L970,400ZM990,400L990,410L980,410L980,400L990,400ZM1010,400L1010,410L1000,410L1000,400L1010,400ZM1110,400L1110,410L1100,410L1100,400L1110,400ZM1130,400L1130,410L1120,410L1120,400L1130,400ZM1150,400L1150,410L1140,410L1140,400L1150,400ZM1170,400L1170,410L1160,410L1160,400L1170,400ZM1350,400L1350,410L1340,410L1340,400L1350,400ZM1370,400L1370,410L1360,410L1360,400L1370,400ZM1390,400L1390,410L1380,410L1380,400L1390,400ZM1410,400L1410,410L1400,410L1400,400L1410,400ZM430,420L430,430L420,430L420,420L430,420ZM470,420L470,430L460,430L460,420L470,420ZM630,420L630,430L620,430L620,420L630,420ZM670,420L670,430L660,430L660,420L670,420ZM790,420L790,430L780,430L780,420L790,420ZM830,420L830,430L820,430L820,420L830,420ZM870,420L870,430L860,430L860,420L870,420ZM910,420L910,430L900,430L900,420L910,420ZM950,420L950,430L940,430L940,420L950,420ZM990,420L990,430L980,430L980,420L990,420ZM1110,420L1110,430L1100,430L1100,420L1110,420ZM1150,420L1150,430L1140,430L1140,420L1150,420ZM1350,420L1350,430L1340,430L1340,420L1350,420ZM1390,420L1390,430L1380,430L1380,420L1390,420ZM450,440L450,450L440,450L440,440L450,440ZM610,440L610,450L600,450L600,440L610,440ZM770,440L770,450L760,450L760,440L770,440ZM850,440L850,450L840,450L840,440L850,440ZM930,440L930,450L920,450L920,440L930,440ZM1170,440L1170,450L1160,450L1160,440L1170,440Z" style="fill:rgb(7,174,0);"/>
    <path d="M260,230L270,230L270,240L260,240L260,230ZM250,230L250,240L240,240L240,230L250,230ZM260,220L260,210L270,210L270,220L260,220ZM250,220L240,220L240,210L250,210L250,220ZM250,220L260,220L260,230L250,230L250,220ZM330,220L340,220L340,230L330,230L330,220ZM340,230L350,230L350,240L340,240L340,230ZM340,220L340,210L350,210L350,220L340,220ZM330,230L330,240L320,240L320,230L330,230ZM330,220L320,220L320,210L330,210L330,220ZM420,230L410,230L410,220L420,220L420,230ZM420,220L420,210L430,210L430,220L420,220ZM420,230L430,230L430,240L420,240L420,230ZM580,220L580,210L590,210L590,220L580,220ZM570,220L560,220L560,210L570,210L570,220ZM570,220L580,220L580,230L570,230L570,220ZM580,230L590,230L590,240L580,240L580,230ZM570,230L570,240L560,240L560,230L570,230ZM660,220L660,210L670,210L670,220L660,220ZM650,220L660,220L660,230L650,230L650,220ZM660,230L670,230L670,240L660,240L660,230ZM650,230L650,240L640,240L640,230L650,230ZM650,220L640,220L640,210L650,210L650,220ZM810,220L800,220L800,210L810,210L810,220ZM810,230L810,240L800,240L800,230L810,230ZM820,230L830,230L830,240L820,240L820,230ZM820,220L820,210L830,210L830,220L820,220ZM810,220L820,220L820,230L810,230L810,220ZM980,220L980,210L990,210L990,220L980,220ZM970,220L980,220L980,230L970,230L970,220ZM970,230L970,240L960,240L960,230L970,230ZM980,230L990,230L990,240L980,240L980,230ZM970,220L960,220L960,210L970,210L970,220ZM1210,220L1200,220L1200,210L1210,210L1210,220ZM1220,230L1230,230L1230,240L1220,240L1220,230ZM1220,220L1220,210L1230,210L1230,220L1220,220ZM1210,230L1210,240L1200,240L1200,230L1210,230ZM1210,220L1220,220L1220,230L1210,230L1210,220ZM1370,220L1380,220L1380,230L1370,230L1370,220ZM1370,230L1370,240L1360,240L1360,230L1370,230ZM1370,220L1360,220L1360,210L1370,210L1370,220ZM1380,220L1380,210L1390,210L1390,220L1380,220ZM1380,230L1390,230L1390,240L1380,240L1380,230ZM1450,230L1450,240L1440,240L1440,230L1450,230ZM1450,220L1440,220L1440,210L1450,210L1450,220ZM1450,220L1460,220L1460,230L1450,230L1450,220ZM690,340L650,340L650,330L680,330L680,250L690,250L690,340ZM820,260L820,250L830,250L830,260L820,260ZM760,290L750,290L750,280L760,280L760,290ZM760,280L760,270L770,270L770,280L760,280ZM770,270L770,260L780,260L780,270L770,270ZM780,270L790,270L790,280L780,280L780,270ZM790,280L800,280L800,290L790,290L790,280ZM800,280L800,270L810,270L810,280L800,280ZM810,270L810,260L820,260L820,270L810,270ZM820,270L830,270L830,280L820,280L820,270ZM820,280L820,290L810,290L810,280L820,280ZM820,290L830,290L830,300L820,300L820,290ZM820,300L820,310L830,310L830,320L820,320L820,330L810,330L810,320L800,320L800,310L810,310L810,300L820,300ZM820,330L830,330L830,340L820,340L820,330ZM820,340L820,350L830,350L830,360L820,360L820,370L830,370L830,380L820,380L820,390L830,390L830,400L820,400L820,410L830,410L830,400L840,400L840,410L930,410L930,400L940,400L940,410L950,410L950,400L940,400L940,390L950,390L950,380L940,380L940,370L950,370L950,360L940,360L940,350L950,350L950,340L940,340L940,330L950,330L950,320L960,320L960,330L970,330L970,340L960,340L960,350L970,350L970,340L980,340L980,350L990,350L990,360L980,360L980,370L990,370L990,360L1000,360L1000,370L1010,370L1010,360L1000,360L1000,350L1010,350L1010,340L1020,340L1020,440L990,440L990,450L980,450L980,490L750,490L750,360L760,360L760,370L770,370L770,360L760,360L760,350L770,350L770,340L780,340L780,350L790,350L790,340L780,340L780,330L790,330L790,320L800,320L800,330L810,330L810,340L800,340L800,350L810,350L810,340L820,340ZM950,320L940,320L940,310L950,310L950,320ZM950,310L950,300L960,300L960,310L950,310ZM950,300L940,300L940,290L950,290L950,300ZM950,290L950,280L960,280L960,290L950,290ZM960,280L960,270L970,270L970,280L960,280ZM970,270L970,260L980,260L980,270L970,270ZM980,270L990,270L990,280L980,280L980,270ZM990,280L1000,280L1000,290L990,290L990,280ZM1000,290L1010,290L1010,300L1000,300L1000,290ZM1010,300L1020,300L1020,330L1010,330L1010,320L1000,320L1000,310L1010,310L1010,300ZM1010,330L1010,340L1000,340L1000,330L1010,330ZM760,350L750,350L750,340L760,340L760,350ZM760,340L760,330L770,330L770,340L760,340ZM760,330L750,330L750,320L760,320L760,330ZM760,320L760,310L770,310L770,300L780,300L780,310L790,310L790,320L780,320L780,330L770,330L770,320L760,320ZM760,310L750,310L750,300L760,300L760,310ZM760,300L760,290L770,290L770,300L760,300ZM820,420L820,430L830,430L830,420L820,420ZM810,410L810,400L800,400L800,410L810,410ZM810,370L810,360L800,360L800,370L810,370ZM840,440L840,450L850,450L850,440L840,440ZM910,420L900,420L900,430L910,430L910,420ZM870,420L860,420L860,430L870,430L870,420ZM940,420L940,430L950,430L950,420L940,420ZM930,450L930,440L920,440L920,450L930,450ZM960,360L960,370L970,370L970,360L960,360ZM960,400L960,410L970,410L970,400L960,400ZM1010,410L1010,400L1000,400L1000,410L1010,410ZM1010,390L1010,380L1000,380L1000,390L1010,390ZM990,430L990,420L980,420L980,430L990,430ZM990,410L990,400L980,400L980,410L990,410ZM990,390L990,380L980,380L980,390L990,390ZM790,430L790,420L780,420L780,430L790,430ZM790,410L790,400L780,400L780,410L790,410ZM790,390L790,380L780,380L780,390L790,390ZM790,370L790,360L780,360L780,370L790,370ZM770,450L770,440L760,440L760,450L770,450ZM770,410L770,400L760,400L760,410L770,410ZM770,390L770,380L760,380L760,390L770,390ZM780,300L780,290L790,290L790,300L780,300ZM800,290L810,290L810,300L800,300L800,290ZM790,300L800,300L800,310L790,310L790,300ZM960,320L960,310L970,310L970,300L980,300L980,310L990,310L990,320L980,320L980,330L970,330L970,320L960,320ZM960,300L960,290L970,290L970,300L960,300ZM970,290L970,280L980,280L980,290L970,290ZM980,290L990,290L990,300L980,300L980,290ZM990,300L1000,300L1000,310L990,310L990,300ZM1000,320L1000,330L990,330L990,320L1000,320ZM1000,340L1000,350L990,350L990,340L1000,340ZM990,330L990,340L980,340L980,330L990,330ZM1000,280L1000,270L1010,270L1010,280L1000,280ZM950,280L940,280L940,270L950,270L950,280ZM980,260L980,250L990,250L990,260L980,260ZM1010,260L1000,260L1000,250L1010,250L1010,260ZM1010,270L1010,260L1020,260L1020,270L1010,270ZM970,260L960,260L960,250L970,250L970,260ZM770,260L760,260L760,250L770,250L770,260ZM780,260L780,250L790,250L790,260L780,260ZM810,260L800,260L800,250L810,250L810,260ZM1170,260L1160,260L1160,250L1170,250L1170,260ZM1210,260L1200,260L1200,250L1210,250L1210,260ZM1170,480L1090,480L1090,360L1100,360L1100,370L1110,370L1110,360L1120,360L1120,370L1130,370L1130,350L1150,350L1150,360L1140,360L1140,370L1150,370L1150,360L1160,360L1160,370L1170,370L1170,360L1160,360L1160,350L1170,350L1170,340L1180,340L1180,350L1190,350L1190,340L1180,340L1180,330L1190,330L1190,320L1200,320L1200,330L1210,330L1210,340L1200,340L1200,350L1210,350L1210,340L1220,340L1220,390L1190,390L1190,380L1180,380L1180,400L1160,400L1160,410L1170,410L1170,440L1160,440L1160,450L1170,450L1170,480ZM1150,350L1150,340L1160,340L1160,350L1150,350ZM1150,340L1140,340L1140,330L1150,330L1150,340ZM1150,330L1150,320L1160,320L1160,330L1150,330ZM1150,320L1140,320L1140,310L1150,310L1150,320ZM1150,310L1150,300L1160,300L1160,310L1150,310ZM1150,300L1140,300L1140,290L1150,290L1150,300ZM1150,290L1150,280L1160,280L1160,290L1150,290ZM1160,280L1160,270L1170,270L1170,280L1160,280ZM1170,270L1170,260L1180,260L1180,270L1170,270ZM1180,270L1190,270L1190,280L1180,280L1180,270ZM1190,280L1200,280L1200,290L1190,290L1190,280ZM1200,280L1200,270L1210,270L1210,280L1200,280ZM1210,280L1220,280L1220,290L1210,290L1210,280ZM1210,290L1210,300L1200,300L1200,290L1210,290ZM1210,300L1220,300L1220,330L1210,330L1210,320L1200,320L1200,310L1210,310L1210,300ZM1100,380L1100,390L1110,390L1110,380L1100,380ZM1100,400L1100,410L1110,410L1110,400L1100,400ZM1100,420L1100,430L1110,430L1110,420L1100,420ZM1120,400L1120,410L1130,410L1130,400L1120,400ZM1140,380L1140,390L1150,390L1150,380L1140,380ZM1140,400L1140,410L1150,410L1150,400L1140,400ZM1140,420L1140,430L1150,430L1150,420L1140,420ZM1210,370L1210,360L1200,360L1200,370L1210,370ZM1190,370L1190,360L1180,360L1180,370L1190,370ZM1170,390L1170,380L1160,380L1160,390L1170,390ZM1160,340L1160,330L1170,330L1170,340L1160,340ZM1160,320L1160,310L1170,310L1170,300L1180,300L1180,310L1190,310L1190,320L1180,320L1180,330L1170,330L1170,320L1160,320ZM1160,300L1160,290L1170,290L1170,300L1160,300ZM1180,300L1180,290L1190,290L1190,300L1180,300ZM1190,300L1200,300L1200,310L1190,310L1190,300ZM1150,280L1140,280L1140,270L1150,270L1150,280ZM1210,270L1210,260L1220,260L1220,270L1210,270ZM1180,260L1180,250L1190,250L1190,260L1180,260ZM1280,340L1230,340L1230,330L1270,330L1270,250L1280,250L1280,340ZM1460,260L1460,250L1470,250L1470,260L1460,260ZM1390,280L1380,280L1380,270L1390,270L1390,280ZM1370,350L1320,350L1320,260L1330,260L1330,340L1370,340L1370,350ZM1480,280L1480,270L1490,270L1490,280L1480,280ZM1420,260L1420,250L1430,250L1430,260L1420,260ZM1490,270L1490,260L1500,260L1500,270L1490,270ZM1410,260L1400,260L1400,250L1410,250L1410,260ZM1500,330L1510,330L1510,340L1500,340L1500,330ZM1500,300L1500,290L1510,290L1510,300L1500,300ZM1500,270L1510,270L1510,280L1500,280L1500,270ZM1370,350L1390,350L1390,360L1380,360L1380,370L1390,370L1390,360L1400,360L1400,370L1410,370L1410,360L1400,360L1400,350L1410,350L1410,340L1420,340L1420,350L1430,350L1430,340L1420,340L1420,330L1430,330L1430,320L1440,320L1440,330L1450,330L1450,340L1440,340L1440,350L1450,350L1450,340L1460,340L1460,390L1430,390L1430,380L1420,380L1420,400L1400,400L1400,410L1410,410L1410,440L1330,440L1330,360L1340,360L1340,370L1350,370L1350,360L1360,360L1360,370L1370,370L1370,350ZM1390,350L1390,340L1400,340L1400,350L1390,350ZM1390,340L1380,340L1380,330L1390,330L1390,340ZM1390,330L1390,320L1400,320L1400,330L1390,330ZM1390,320L1380,320L1380,310L1390,310L1390,320ZM1390,310L1390,300L1400,300L1400,310L1390,310ZM1390,300L1380,300L1380,290L1390,290L1390,300ZM1390,290L1390,280L1400,280L1400,290L1390,290ZM1400,280L1400,270L1410,270L1410,280L1400,280ZM1410,270L1410,260L1420,260L1420,270L1410,270ZM1420,270L1430,270L1430,280L1420,280L1420,270ZM1430,280L1440,280L1440,290L1430,290L1430,280ZM1440,280L1440,270L1450,270L1450,280L1440,280ZM1450,270L1450,260L1460,260L1460,270L1450,270ZM1460,270L1470,270L1470,280L1460,280L1460,270ZM1470,280L1480,280L1480,290L1470,290L1470,280ZM1480,290L1490,290L1490,300L1480,300L1480,290ZM1490,300L1500,300L1500,310L1510,310L1510,320L1500,320L1500,330L1490,330L1490,320L1480,320L1480,310L1490,310L1490,300ZM1490,330L1490,340L1480,340L1480,330L1490,330ZM1480,330L1470,330L1470,320L1480,320L1480,330ZM1470,330L1470,340L1460,340L1460,330L1470,330ZM1450,370L1450,360L1440,360L1440,370L1450,370ZM1430,370L1430,360L1420,360L1420,370L1430,370ZM1410,390L1410,380L1400,380L1400,390L1410,390ZM1390,430L1390,420L1380,420L1380,430L1390,430ZM1390,410L1390,400L1380,400L1380,410L1390,410ZM1390,390L1390,380L1380,380L1380,390L1390,390ZM1370,410L1370,400L1360,400L1360,410L1370,410ZM1350,430L1350,420L1340,420L1340,430L1350,430ZM1350,410L1350,400L1340,400L1340,410L1350,410ZM1350,390L1350,380L1340,380L1340,390L1350,390ZM1400,340L1400,330L1410,330L1410,340L1400,340ZM1400,320L1400,310L1410,310L1410,300L1420,300L1420,310L1430,310L1430,320L1420,320L1420,330L1410,330L1410,320L1400,320ZM1400,300L1400,290L1410,290L1410,300L1400,300ZM1420,300L1420,290L1430,290L1430,300L1420,300ZM1440,290L1450,290L1450,300L1440,300L1440,290ZM1450,290L1450,280L1460,280L1460,290L1450,290ZM1430,300L1440,300L1440,310L1430,310L1430,300ZM1460,290L1470,290L1470,300L1460,300L1460,290ZM1470,300L1480,300L1480,310L1470,310L1470,300ZM1470,320L1460,320L1460,330L1450,330L1450,320L1440,320L1440,310L1450,310L1450,300L1460,300L1460,310L1470,310L1470,320ZM1450,260L1440,260L1440,250L1450,250L1450,260ZM210,440L160,440L160,350L170,350L170,430L210,430L210,440ZM210,440L220,440L220,480L260,480L260,490L210,490L210,440ZM260,490L270,490L270,530L350,530L350,450L360,450L360,540L260,540L260,490ZM1420,540L1320,540L1320,450L1330,450L1330,530L1410,530L1410,490L1420,490L1420,540ZM1470,440L1470,430L1510,430L1510,350L1520,350L1520,440L1470,440ZM1420,490L1420,480L1460,480L1460,440L1470,440L1470,490L1420,490ZM180,270L170,270L170,260L180,260L180,270ZM290,260L280,260L280,250L290,250L290,260ZM180,270L190,270L190,280L180,280L180,270ZM190,280L200,280L200,290L190,290L190,280ZM200,280L200,270L210,270L210,280L200,280ZM210,270L210,260L220,260L220,270L210,270ZM220,270L230,270L230,280L220,280L220,270ZM230,280L240,280L240,290L230,290L230,280ZM240,280L240,270L250,270L250,280L240,280ZM250,270L250,260L260,260L260,270L250,270ZM260,270L270,270L270,280L260,280L260,270ZM270,280L280,280L280,290L270,290L270,280ZM280,290L290,290L290,300L280,300L280,290ZM290,300L300,300L300,330L290,330L290,320L280,320L280,310L290,310L290,300ZM290,330L290,340L280,340L280,330L290,330ZM290,340L300,340L300,350L310,350L310,360L300,360L300,370L310,370L310,360L320,360L320,370L330,370L330,360L340,360L340,370L350,370L350,380L340,380L340,390L350,390L350,400L340,400L340,410L350,410L350,420L340,420L340,430L350,430L350,440L270,440L270,400L260,400L260,390L270,390L270,380L260,380L260,390L230,390L230,380L220,380L220,370L230,370L230,360L220,360L220,350L230,350L230,340L220,340L220,330L230,330L230,320L240,320L240,330L250,330L250,340L240,340L240,350L250,350L250,340L260,340L260,350L270,350L270,360L260,360L260,370L270,370L270,360L280,360L280,370L290,370L290,360L280,360L280,350L290,350L290,340ZM220,350L210,350L210,340L220,340L220,350ZM210,340L200,340L200,330L210,330L210,340ZM200,330L190,330L190,320L200,320L200,330ZM190,330L190,340L180,340L180,330L190,330ZM180,330L170,330L170,300L180,300L180,310L190,310L190,320L180,320L180,330ZM180,300L180,290L190,290L190,300L180,300ZM180,290L170,290L170,280L180,280L180,290ZM300,380L300,390L310,390L310,380L300,380ZM300,400L300,410L310,410L310,400L300,400ZM300,420L300,430L310,430L310,420L300,420ZM290,410L290,400L280,400L280,410L290,410ZM290,390L290,380L280,380L280,390L290,390ZM320,400L320,410L330,410L330,400L320,400ZM250,370L250,360L240,360L240,370L250,370ZM200,290L210,290L210,300L200,300L200,290ZM210,300L220,300L220,310L230,310L230,320L220,320L220,330L210,330L210,320L200,320L200,310L210,310L210,300ZM220,300L220,290L230,290L230,300L220,300ZM190,300L200,300L200,310L190,310L190,300ZM240,290L250,290L250,300L240,300L240,290ZM250,290L250,280L260,280L260,290L250,290ZM230,300L240,300L240,310L230,310L230,300ZM260,290L270,290L270,300L260,300L260,290ZM270,300L280,300L280,310L270,310L270,300ZM280,320L280,330L270,330L270,320L280,320ZM280,340L280,350L270,350L270,340L280,340ZM270,330L270,340L260,340L260,330L270,330ZM260,330L250,330L250,320L240,320L240,310L250,310L250,300L260,300L260,310L270,310L270,320L260,320L260,330ZM280,280L280,270L290,270L290,280L280,280ZM290,270L290,260L300,260L300,270L290,270ZM260,260L260,250L270,250L270,260L260,260ZM310,350L310,340L350,340L350,260L360,260L360,350L310,350ZM220,260L220,250L230,250L230,260L220,260ZM300,260L300,250L310,250L310,260L300,260ZM250,260L240,260L240,250L250,250L250,260ZM570,260L560,260L560,250L570,250L570,260ZM450,260L440,260L440,250L450,250L450,260ZM580,260L580,250L590,250L590,260L580,260ZM420,260L420,250L430,250L430,260L420,260ZM490,260L480,260L480,250L490,250L490,260ZM420,270L410,270L410,260L420,260L420,270ZM460,260L460,250L470,250L470,260L460,260ZM610,260L600,260L600,250L610,250L610,260ZM620,260L620,250L630,250L630,260L620,260ZM420,270L430,270L430,280L420,280L420,270ZM430,280L440,280L440,290L430,290L430,280ZM440,280L440,270L450,270L450,280L440,280ZM450,270L450,260L460,260L460,270L450,270ZM460,270L470,270L470,280L460,280L460,270ZM470,280L480,280L480,290L470,290L470,280ZM480,280L480,270L490,270L490,280L480,280ZM490,270L490,260L500,260L500,270L490,270ZM500,270L510,270L510,280L500,280L500,270ZM510,280L520,280L520,290L510,290L510,280ZM520,280L520,270L530,270L530,280L520,280ZM530,270L530,260L540,260L540,270L530,270ZM540,270L550,270L550,280L540,280L540,270ZM550,280L560,280L560,290L550,290L550,280ZM560,280L560,270L570,270L570,280L560,280ZM570,270L570,260L580,260L580,270L570,270ZM580,270L590,270L590,280L580,280L580,270ZM590,280L600,280L600,290L590,290L590,280ZM600,280L600,270L610,270L610,280L600,280ZM610,270L610,260L620,260L620,270L610,270ZM620,270L630,270L630,280L620,280L620,270ZM630,280L640,280L640,290L630,290L630,280ZM630,290L630,300L620,300L620,290L630,290ZM630,300L640,300L640,310L630,310L630,300ZM630,310L630,320L620,320L620,330L610,330L610,320L600,320L600,310L610,310L610,300L620,300L620,310L630,310ZM630,320L640,320L640,350L650,350L650,360L640,360L640,370L650,370L650,360L660,360L660,370L670,370L670,360L680,360L680,480L600,480L600,450L610,450L610,440L600,440L600,410L610,410L610,400L590,400L590,380L580,380L580,390L560,390L560,370L570,370L570,360L560,360L560,350L570,350L570,340L580,340L580,350L590,350L590,360L580,360L580,370L590,370L590,360L600,360L600,370L610,370L610,360L600,360L600,350L610,350L610,340L620,340L620,350L630,350L630,340L620,340L620,330L630,330L630,320ZM560,350L550,350L550,340L540,340L540,330L550,330L550,320L560,320L560,330L570,330L570,340L560,340L560,350ZM540,330L530,330L530,320L520,320L520,310L530,310L530,300L540,300L540,310L550,310L550,320L540,320L540,330ZM530,330L530,340L520,340L520,330L530,330ZM520,330L510,330L510,320L520,320L520,330ZM510,330L510,340L500,340L500,330L510,330ZM500,340L500,350L490,350L490,340L500,340ZM490,350L490,360L480,360L480,370L490,370L490,400L480,400L480,410L490,410L490,480L410,480L410,340L420,340L420,350L430,350L430,360L420,360L420,370L430,370L430,360L440,360L440,370L450,370L450,360L440,360L440,350L450,350L450,340L460,340L460,350L470,350L470,340L460,340L460,330L470,330L470,320L480,320L480,330L490,330L490,340L480,340L480,350L490,350ZM420,340L420,330L430,330L430,340L420,340ZM420,330L410,330L410,300L420,300L420,310L430,310L430,320L420,320L420,330ZM420,300L420,290L430,290L430,300L420,300ZM420,290L410,290L410,280L420,280L420,290ZM640,400L640,410L650,410L650,400L640,400ZM630,430L630,420L620,420L620,430L630,430ZM630,410L630,400L620,400L620,410L630,410ZM630,390L630,380L620,380L620,390L630,390ZM630,370L630,360L620,360L620,370L630,370ZM660,380L660,390L670,390L670,380L660,380ZM660,400L660,410L670,410L670,400L660,400ZM660,420L660,430L670,430L670,420L660,420ZM610,390L610,380L600,380L600,390L610,390ZM470,430L470,420L460,420L460,430L470,430ZM470,410L470,400L460,400L460,410L470,410ZM470,390L470,380L460,380L460,390L470,390ZM470,370L470,360L460,360L460,370L470,370ZM450,450L450,440L440,440L440,450L450,450ZM450,410L450,400L440,400L440,410L450,410ZM450,390L450,380L440,380L440,390L450,390ZM430,430L430,420L420,420L420,430L430,430ZM430,410L430,400L420,400L420,410L430,410ZM430,390L430,380L420,380L420,390L430,390ZM440,290L450,290L450,300L440,300L440,290ZM450,300L460,300L460,310L470,310L470,320L460,320L460,330L450,330L450,320L440,320L440,310L450,310L450,300ZM460,300L460,290L470,290L470,300L460,300ZM430,300L440,300L440,310L430,310L430,300ZM480,290L490,290L490,300L480,300L480,290ZM490,290L490,280L500,280L500,290L490,290ZM470,300L480,300L480,310L470,310L470,300ZM500,290L510,290L510,300L500,300L500,290ZM520,290L530,290L530,300L520,300L520,290ZM540,300L540,290L550,290L550,300L540,300ZM510,300L520,300L520,310L510,310L510,300ZM560,290L570,290L570,300L560,300L560,290ZM570,290L570,280L580,280L580,290L570,290ZM550,300L560,300L560,310L550,310L550,300ZM580,290L590,290L590,300L580,300L580,290ZM600,290L610,290L610,300L600,300L600,290ZM590,300L600,300L600,310L590,310L590,300ZM610,340L600,340L600,330L610,330L610,340ZM600,340L600,350L590,350L590,340L600,340ZM580,340L580,330L590,330L590,340L580,340ZM580,330L570,330L570,320L560,320L560,310L570,310L570,300L580,300L580,310L590,310L590,320L580,320L580,330ZM510,320L500,320L500,330L490,330L490,320L480,320L480,310L490,310L490,300L500,300L500,310L510,310L510,320ZM450,340L440,340L440,330L450,330L450,340ZM440,340L440,350L430,350L430,340L440,340ZM430,330L430,320L440,320L440,330L430,330ZM600,320L600,330L590,330L590,320L600,320ZM1180,490L1180,480L1220,480L1220,400L1230,400L1230,490L1180,490ZM1180,580L1080,580L1080,490L1090,490L1090,570L1170,570L1170,490L1180,490L1180,580ZM990,540L990,530L1020,530L1020,450L1030,450L1030,540L990,540ZM990,590L740,590L740,500L750,500L750,580L980,580L980,540L990,540L990,590ZM500,580L400,580L400,490L410,490L410,570L490,570L490,490L500,490L500,580ZM550,440L500,440L500,430L550,430L550,440ZM590,490L600,490L600,570L680,570L680,490L690,490L690,580L590,580L590,490ZM550,440L560,440L560,480L590,480L590,490L550,490L550,440ZM450,150L450,160L440,160L440,150L450,150ZM490,150L490,160L480,160L480,150L490,150ZM610,150L610,160L600,160L600,150L610,150ZM650,150L650,160L640,160L640,150L650,150ZM770,150L770,160L760,160L760,150L770,150ZM810,150L810,160L800,160L800,150L810,150ZM850,150L850,160L840,160L840,150L850,150ZM890,150L890,160L880,160L880,150L890,150ZM930,150L930,160L920,160L920,150L930,150ZM970,150L970,160L960,160L960,150L970,150ZM1210,150L1210,160L1200,160L1200,150L1210,150ZM1250,150L1250,160L1240,160L1240,150L1250,150ZM310,170L310,180L300,180L300,170L310,170ZM470,170L470,180L460,180L460,170L470,170ZM630,170L630,180L620,180L620,170L630,170ZM790,170L790,180L780,180L780,170L790,170ZM870,170L870,180L860,180L860,170L870,170ZM950,170L950,180L940,180L940,170L950,170ZM1270,170L1270,180L1260,180L1260,170L1270,170ZM1350,170L1350,180L1340,180L1340,170L1350,170ZM290,190L290,200L280,200L280,190L290,190ZM310,190L310,200L300,200L300,190L310,190ZM330,190L330,200L320,200L320,190L330,190ZM450,190L450,200L440,200L440,190L450,190ZM470,190L470,200L460,200L460,190L470,190ZM490,190L490,200L480,200L480,190L490,190ZM610,190L610,200L600,200L600,190L610,190ZM630,190L630,200L620,200L620,190L630,190ZM650,190L650,200L640,200L640,190L650,190ZM770,190L770,200L760,200L760,190L770,190ZM790,190L790,200L780,200L780,190L790,190ZM810,190L810,200L800,200L800,190L810,190ZM850,190L850,200L840,200L840,190L850,190ZM870,190L870,200L860,200L860,190L870,190ZM890,190L890,200L880,200L880,190L890,190ZM930,190L930,200L920,200L920,190L930,190ZM950,190L950,200L940,200L940,190L950,190ZM970,190L970,200L960,200L960,190L970,190ZM1010,190L1010,200L1000,200L1000,190L1010,190ZM1210,190L1210,200L1200,200L1200,190L1210,190ZM1250,190L1250,200L1240,200L1240,190L1250,190ZM1270,190L1270,200L1260,200L1260,190L1270,190ZM1350,190L1350,200L1340,200L1340,190L1350,190ZM1370,190L1370,200L1360,200L1360,190L1370,190ZM1410,190L1410,200L1400,200L1400,190L1410,190ZM230,210L230,220L220,220L220,210L230,210ZM290,210L290,220L280,220L280,210L290,210ZM310,210L310,220L300,220L300,210L310,210ZM450,210L450,220L440,220L440,210L450,210ZM470,210L470,220L460,220L460,210L470,210ZM490,210L490,220L480,220L480,210L490,210ZM610,210L610,220L600,220L600,210L610,210ZM630,210L630,220L620,220L620,210L630,210ZM770,210L770,220L760,220L760,210L770,210ZM790,210L790,220L780,220L780,210L790,210ZM950,210L950,220L940,220L940,210L950,210ZM1010,210L1010,220L1000,220L1000,210L1010,210ZM1150,210L1150,220L1140,220L1140,210L1150,210ZM1170,210L1170,220L1160,220L1160,210L1170,210ZM1190,210L1190,220L1180,220L1180,210L1190,210ZM1250,210L1250,220L1240,220L1240,210L1250,210ZM1270,210L1270,220L1260,220L1260,210L1270,210ZM1350,210L1350,220L1340,220L1340,210L1350,210ZM1410,210L1410,220L1400,220L1400,210L1410,210ZM1430,210L1430,220L1420,220L1420,210L1430,210ZM230,230L230,240L220,240L220,230L230,230ZM290,230L290,240L280,240L280,230L290,230ZM310,230L310,240L300,240L300,230L310,230ZM450,230L450,240L440,240L440,230L450,230ZM470,230L470,240L460,240L460,230L470,230ZM490,230L490,240L480,240L480,230L490,230ZM610,230L610,240L600,240L600,230L610,230ZM630,230L630,240L620,240L620,230L630,230ZM770,230L770,240L760,240L760,230L770,230ZM790,230L790,240L780,240L780,230L790,230ZM950,230L950,240L940,240L940,230L950,230ZM1010,230L1010,240L1000,240L1000,230L1010,230ZM1150,230L1150,240L1140,240L1140,230L1150,230ZM1170,230L1170,240L1160,240L1160,230L1170,230ZM1190,230L1190,240L1180,240L1180,230L1190,230ZM1250,230L1250,240L1240,240L1240,230L1250,230ZM1270,230L1270,240L1260,240L1260,230L1270,230ZM1350,230L1350,240L1340,240L1340,230L1350,230ZM1410,230L1410,240L1400,240L1400,230L1410,230ZM1430,230L1430,240L1420,240L1420,230L1430,230ZM950,250L950,260L940,260L940,250L950,250ZM1150,250L1150,260L1140,260L1140,250L1150,250ZM1390,250L1390,260L1380,260L1380,250L1390,250ZM930,290L930,300L840,300L840,290L930,290Z" style="fill:rgb(0,210,55);"/>
    <path d="M850,280L840,280L840,210L930,210L930,280L920,280L920,290L890,290L890,280L880,280L880,290L850,290L850,280ZM650,330L650,250L680,250L680,330L670,330L670,320L660,320L660,330L650,330ZM670,260L660,260L660,270L670,270L670,260ZM670,310L670,300L660,300L660,310L670,310ZM1230,330L1230,250L1270,250L1270,330L1250,330L1250,320L1240,320L1240,330L1230,330ZM340,330L350,330L350,340L340,340L340,330ZM310,340L310,260L340,260L340,270L350,270L350,280L340,280L340,290L350,290L350,300L340,300L340,310L350,310L350,320L340,320L340,330L330,330L330,320L320,320L320,330L330,330L330,340L310,340ZM330,280L320,280L320,290L330,290L330,280ZM1330,340L1330,260L1370,260L1370,320L1360,320L1360,330L1370,330L1370,340L1330,340ZM580,470L590,470L590,480L580,480L580,470ZM510,360L500,360L500,350L550,350L550,360L540,360L540,370L530,370L530,360L520,360L520,370L530,370L530,380L520,380L520,390L530,390L530,380L540,380L540,390L550,390L550,400L540,400L540,410L530,410L530,400L520,400L520,410L510,410L510,400L500,400L500,390L510,390L510,380L500,380L500,370L510,370L510,360ZM540,370L550,370L550,380L540,380L540,370ZM550,400L560,400L560,410L570,410L570,420L560,420L560,430L550,430L550,420L540,420L540,410L550,410L550,400ZM570,410L570,400L580,400L580,410L570,410ZM580,410L590,410L590,420L580,420L580,410ZM580,420L580,430L590,430L590,440L580,440L580,450L570,450L570,440L560,440L560,430L570,430L570,420L580,420ZM580,450L590,450L590,460L580,460L580,450ZM580,460L580,470L570,470L570,460L580,460ZM570,460L560,460L560,450L570,450L570,460ZM540,420L540,430L530,430L530,420L540,420ZM530,420L520,420L520,410L530,410L530,420ZM520,420L520,430L510,430L510,420L520,420ZM510,420L500,420L500,410L510,410L510,420ZM570,470L570,480L560,480L560,470L570,470ZM1190,470L1190,480L1180,480L1180,470L1190,470ZM1190,420L1180,420L1180,410L1190,410L1190,400L1200,400L1200,410L1210,410L1210,400L1220,400L1220,450L1210,450L1210,440L1200,440L1200,450L1210,450L1210,460L1200,460L1200,470L1190,470L1190,460L1180,460L1180,450L1190,450L1190,440L1180,440L1180,430L1190,430L1190,420ZM1210,460L1220,460L1220,480L1200,480L1200,470L1210,470L1210,460ZM1200,420L1200,430L1210,430L1210,420L1200,420ZM1340,490L1330,490L1330,460L1340,460L1340,470L1350,470L1350,460L1340,460L1340,450L1410,450L1410,460L1400,460L1400,470L1410,470L1410,460L1420,460L1420,470L1430,470L1430,460L1420,460L1420,450L1430,450L1430,440L1420,440L1420,430L1430,430L1430,420L1420,420L1420,410L1430,410L1430,400L1440,400L1440,410L1450,410L1450,400L1460,400L1460,410L1470,410L1470,350L1510,350L1510,380L1500,380L1500,390L1510,390L1510,400L1500,400L1500,410L1510,410L1510,420L1500,420L1500,430L1470,430L1470,420L1460,420L1460,430L1470,430L1470,440L1460,440L1460,480L1420,480L1420,490L1410,490L1410,480L1400,480L1400,490L1410,490L1410,500L1400,500L1400,510L1390,510L1390,500L1380,500L1380,490L1390,490L1390,480L1380,480L1380,490L1370,490L1370,480L1360,480L1360,490L1370,490L1370,500L1360,500L1360,510L1350,510L1350,500L1340,500L1340,490L1350,490L1350,480L1340,480L1340,490ZM1400,510L1410,510L1410,520L1400,520L1400,510ZM1400,520L1400,530L1390,530L1390,520L1400,520ZM1390,520L1380,520L1380,530L1370,530L1370,520L1360,520L1360,510L1370,510L1370,500L1380,500L1380,510L1390,510L1390,520ZM1360,520L1360,530L1350,530L1350,520L1360,520ZM1350,520L1340,520L1340,530L1330,530L1330,500L1340,500L1340,510L1350,510L1350,520ZM1390,460L1380,460L1380,470L1390,470L1390,460ZM1370,460L1360,460L1360,470L1370,470L1370,460ZM1440,420L1440,430L1450,430L1450,420L1440,420ZM1440,440L1440,450L1450,450L1450,440L1440,440ZM1440,460L1440,470L1450,470L1450,460L1440,460ZM1480,360L1480,370L1490,370L1490,360L1480,360ZM1480,400L1480,410L1490,410L1490,400L1480,400ZM960,570L970,570L970,580L960,580L960,570ZM950,570L950,580L940,580L940,570L950,570ZM920,570L930,570L930,580L920,580L920,570ZM840,570L850,570L850,580L840,580L840,570ZM910,570L910,580L900,580L900,570L910,570ZM760,510L750,510L750,500L760,500L760,510ZM1010,520L1020,520L1020,530L1010,530L1010,520ZM880,570L890,570L890,580L880,580L880,570ZM830,570L830,580L820,580L820,570L830,570ZM870,570L870,580L860,580L860,570L870,570ZM760,570L770,570L770,580L760,580L760,570ZM790,570L790,580L780,580L780,570L790,570ZM800,570L810,570L810,580L800,580L800,570ZM760,560L760,570L750,570L750,560L760,560ZM760,510L770,510L770,520L760,520L760,510ZM770,510L770,500L780,500L780,510L770,510ZM780,510L790,510L790,520L780,520L780,510ZM790,510L790,500L800,500L800,510L790,510ZM800,510L810,510L810,520L800,520L800,510ZM810,510L810,500L820,500L820,510L810,510ZM820,510L830,510L830,520L820,520L820,510ZM830,510L830,500L840,500L840,510L830,510ZM840,510L850,510L850,520L840,520L840,510ZM850,510L850,500L860,500L860,510L850,510ZM860,510L870,510L870,520L860,520L860,510ZM870,510L870,500L880,500L880,510L870,510ZM880,510L890,510L890,520L880,520L880,510ZM890,510L890,500L900,500L900,510L890,510ZM900,510L910,510L910,520L900,520L900,510ZM910,510L910,500L920,500L920,510L910,510ZM920,510L930,510L930,520L920,520L920,510ZM930,510L930,500L940,500L940,510L930,510ZM940,510L950,510L950,520L940,520L940,510ZM950,510L950,500L960,500L960,510L950,510ZM960,510L970,510L970,520L960,520L960,510ZM970,510L970,500L980,500L980,510L970,510ZM980,510L990,510L990,520L980,520L980,510ZM990,510L990,500L1000,500L1000,510L990,510ZM1000,500L1000,490L1010,490L1010,500L1000,500ZM1000,490L990,490L990,480L1000,480L1000,490ZM1000,480L1000,470L1010,470L1010,460L1020,460L1020,490L1010,490L1010,480L1000,480ZM1000,470L990,470L990,450L1010,450L1010,460L1000,460L1000,470ZM1010,500L1020,500L1020,510L1010,510L1010,500ZM1010,510L1010,520L1000,520L1000,510L1010,510ZM1000,520L1000,530L990,530L990,520L1000,520ZM990,530L990,540L980,540L980,530L990,530ZM980,540L980,550L970,550L970,540L980,540ZM970,550L970,560L960,560L960,550L970,550ZM960,560L960,570L950,570L950,560L960,560ZM950,560L940,560L940,550L950,550L950,560ZM940,550L930,550L930,540L940,540L940,550ZM930,550L930,560L920,560L920,550L930,550ZM920,560L920,570L910,570L910,560L920,560ZM910,560L900,560L900,550L910,550L910,560ZM900,550L890,550L890,540L900,540L900,550ZM890,550L890,560L880,560L880,550L890,550ZM880,560L880,570L870,570L870,560L880,560ZM870,560L860,560L860,550L870,550L870,560ZM860,550L850,550L850,540L860,540L860,550ZM850,550L850,560L840,560L840,550L850,550ZM840,560L840,570L830,570L830,560L840,560ZM830,560L820,560L820,550L830,550L830,560ZM820,550L810,550L810,540L820,540L820,550ZM810,550L810,560L800,560L800,550L810,550ZM800,560L800,570L790,570L790,560L800,560ZM790,560L780,560L780,550L790,550L790,560ZM780,550L770,550L770,540L780,540L780,550ZM770,550L770,560L760,560L760,550L770,550ZM760,550L750,550L750,540L760,540L760,550ZM760,540L760,530L770,530L770,540L760,540ZM760,530L750,530L750,520L760,520L760,530ZM780,540L780,530L790,530L790,540L780,540ZM790,530L790,520L800,520L800,530L790,530ZM810,520L820,520L820,530L810,530L810,520ZM800,530L810,530L810,540L800,540L800,530ZM830,520L840,520L840,530L830,530L830,520ZM820,530L830,530L830,540L820,540L820,530ZM840,530L850,530L850,540L840,540L840,530ZM860,540L860,530L870,530L870,540L860,540ZM870,530L870,520L880,520L880,530L870,530ZM890,520L900,520L900,530L890,530L890,520ZM880,530L890,530L890,540L880,540L880,530ZM910,520L920,520L920,530L910,530L910,520ZM900,530L910,530L910,540L900,540L900,530ZM930,520L940,520L940,530L930,530L930,520ZM920,530L930,530L930,540L920,540L920,530ZM950,520L960,520L960,530L950,530L950,520ZM940,530L950,530L950,540L940,540L940,530ZM970,520L980,520L980,530L970,530L970,520ZM960,530L970,530L970,540L960,540L960,530ZM960,540L960,550L950,550L950,540L960,540ZM920,540L920,550L910,550L910,540L920,540ZM880,540L880,550L870,550L870,540L880,540ZM840,540L840,550L830,550L830,540L840,540ZM800,540L800,550L790,550L790,540L800,540ZM280,520L280,530L270,530L270,520L280,520ZM340,500L340,490L350,490L350,500L340,500ZM340,470L350,470L350,480L340,480L340,470ZM180,420L180,430L170,430L170,420L180,420ZM340,460L340,450L350,450L350,460L340,460ZM340,510L350,510L350,520L340,520L340,510ZM250,410L250,400L260,400L260,410L250,410ZM290,510L290,520L280,520L280,510L290,510ZM200,360L200,350L210,350L210,360L200,360ZM170,370L170,350L190,350L190,360L180,360L180,370L170,370ZM190,360L200,360L200,370L210,370L210,380L200,380L200,390L190,390L190,380L180,380L180,370L190,370L190,360ZM200,390L210,390L210,400L200,400L200,390ZM210,400L220,400L220,410L210,410L210,400ZM220,410L230,410L230,420L220,420L220,410ZM230,410L230,400L240,400L240,410L230,410ZM240,410L250,410L250,420L240,420L240,410ZM250,420L260,420L260,430L250,430L250,420ZM250,430L250,440L240,440L240,430L250,430ZM250,440L260,440L260,450L250,450L250,440ZM260,450L270,450L270,460L260,460L260,450ZM270,460L280,460L280,470L270,470L270,460ZM280,460L280,450L290,450L290,460L280,460ZM290,460L300,460L300,470L290,470L290,460ZM300,460L300,450L310,450L310,460L300,460ZM310,460L320,460L320,470L310,470L310,460ZM320,460L320,450L330,450L330,460L320,460ZM330,460L340,460L340,470L330,470L330,460ZM330,470L330,480L320,480L320,470L330,470ZM320,480L320,490L310,490L310,480L320,480ZM320,490L330,490L330,500L320,500L320,490ZM330,500L340,500L340,510L330,510L330,500ZM330,510L330,520L320,520L320,510L330,510ZM320,520L320,530L310,530L310,520L320,520ZM310,520L300,520L300,510L310,510L310,520ZM300,510L290,510L290,500L300,500L300,510ZM290,500L280,500L280,490L290,490L290,500ZM280,490L270,490L270,480L280,480L280,490ZM270,480L260,480L260,470L270,470L270,480ZM260,470L250,470L250,460L260,460L260,470ZM250,470L250,480L240,480L240,470L250,470ZM240,470L230,470L230,460L240,460L240,470ZM230,460L220,460L220,450L230,450L230,460ZM230,450L230,440L240,440L240,450L230,450ZM230,440L220,440L220,430L230,430L230,440ZM220,430L210,430L210,420L220,420L220,430ZM210,420L200,420L200,410L210,410L210,420ZM200,420L200,430L190,430L190,420L200,420ZM190,420L180,420L180,410L190,410L190,420ZM180,410L170,410L170,380L180,380L180,390L190,390L190,400L180,400L180,410ZM190,400L200,400L200,410L190,410L190,400ZM230,420L240,420L240,430L230,430L230,420ZM240,450L250,450L250,460L240,460L240,450ZM280,470L290,470L290,480L280,480L280,470ZM300,470L310,470L310,480L300,480L300,470ZM300,500L300,490L310,490L310,500L300,500ZM230,470L230,480L220,480L220,470L230,470ZM480,530L490,530L490,540L480,540L480,530ZM430,530L430,540L420,540L420,530L430,530ZM420,510L430,510L430,520L420,520L420,510ZM420,510L410,510L410,500L420,500L420,510ZM420,550L430,550L430,560L420,560L420,550ZM430,520L440,520L440,530L430,530L430,520ZM440,520L440,510L450,510L450,520L440,520ZM450,510L450,500L460,500L460,510L450,510ZM460,500L460,490L470,490L470,500L460,500ZM470,500L480,500L480,510L470,510L470,500ZM480,510L490,510L490,520L480,520L480,510ZM480,520L480,530L470,530L470,520L480,520ZM470,530L470,540L460,540L460,530L470,530ZM460,540L460,550L450,550L450,540L460,540ZM450,540L440,540L440,530L450,530L450,540ZM470,520L460,520L460,510L470,510L470,520ZM480,500L480,490L490,490L490,500L480,500ZM450,550L450,560L440,560L440,550L450,550ZM420,540L420,550L410,550L410,540L420,540ZM460,550L470,550L470,560L460,560L460,550ZM450,500L440,500L440,490L450,490L450,500ZM420,500L420,490L430,490L430,500L420,500ZM610,540L600,540L600,530L610,530L610,540ZM610,500L620,500L620,510L610,510L610,500ZM620,500L620,490L630,490L630,500L620,500ZM630,500L640,500L640,510L630,510L630,500ZM640,500L640,490L650,490L650,500L640,500ZM650,500L660,500L660,510L650,510L650,500ZM660,500L660,490L670,490L670,500L660,500ZM670,500L680,500L680,510L670,510L670,500ZM670,510L670,520L660,520L660,510L670,510ZM670,520L680,520L680,530L670,530L670,520ZM670,530L670,540L660,540L660,530L670,530ZM670,540L680,540L680,550L670,550L670,540ZM670,550L670,560L660,560L660,550L670,550ZM660,550L650,550L650,540L660,540L660,550ZM650,550L650,560L640,560L640,550L650,550ZM640,560L640,570L630,570L630,560L640,560ZM630,560L620,560L620,550L630,550L630,560ZM620,550L610,550L610,540L620,540L620,550ZM620,540L620,530L630,530L630,540L620,540ZM630,530L630,520L640,520L640,530L630,530ZM630,520L620,520L620,510L630,510L630,520ZM640,510L650,510L650,520L640,520L640,510ZM640,530L650,530L650,540L640,540L640,530ZM610,550L610,560L600,560L600,550L610,550ZM610,500L600,500L600,490L610,490L610,500ZM610,510L610,520L600,520L600,510L610,510ZM1160,500L1160,490L1170,490L1170,500L1160,500ZM1100,530L1090,530L1090,500L1100,500L1100,510L1110,510L1110,520L1100,520L1100,530ZM1100,500L1100,490L1110,490L1110,500L1100,500ZM1110,500L1120,500L1120,510L1110,510L1110,500ZM1120,500L1120,490L1130,490L1130,500L1120,500ZM1130,500L1140,500L1140,510L1130,510L1130,500ZM1140,500L1140,490L1150,490L1150,500L1140,500ZM1150,500L1160,500L1160,510L1150,510L1150,500ZM1160,510L1170,510L1170,520L1160,520L1160,510ZM1160,520L1160,530L1150,530L1150,520L1160,520ZM1160,530L1170,530L1170,540L1160,540L1160,530ZM1160,540L1160,550L1150,550L1150,540L1160,540ZM1160,550L1170,550L1170,560L1160,560L1160,550ZM1160,560L1160,570L1150,570L1150,560L1160,560ZM1150,560L1140,560L1140,550L1150,550L1150,560ZM1140,550L1130,550L1130,540L1140,540L1140,550ZM1130,550L1130,560L1120,560L1120,550L1130,550ZM1120,560L1120,570L1110,570L1110,560L1120,560ZM1110,560L1100,560L1100,550L1110,550L1110,560ZM1100,550L1090,550L1090,540L1100,540L1100,550ZM1100,540L1100,530L1110,530L1110,540L1100,540ZM1110,530L1110,520L1120,520L1120,530L1110,530ZM1120,510L1130,510L1130,520L1120,520L1120,510ZM1140,510L1150,510L1150,520L1140,520L1140,510ZM1130,520L1140,520L1140,530L1130,530L1130,520ZM1150,530L1150,540L1140,540L1140,530L1150,530ZM1130,540L1120,540L1120,530L1130,530L1130,540ZM1120,540L1120,550L1110,550L1110,540L1120,540ZM490,550L490,560L480,560L480,550L490,550Z" style="fill:#0e4b25;stroke:#0e4b25;stroke-width:0.12px;"/>
    <path d="M340,330L340,320L350,320L350,330L340,330ZM330,330L340,330L340,340L330,340L330,330ZM330,330L320,330L320,320L330,320L330,330ZM530,370L540,370L540,380L530,380L530,370ZM530,380L530,390L520,390L520,380L530,380ZM540,370L540,360L550,360L550,370L540,370ZM530,370L520,370L520,360L530,360L530,370ZM540,380L550,380L550,390L540,390L540,380ZM540,420L550,420L550,430L540,430L540,420ZM510,410L520,410L520,420L510,420L510,410ZM520,410L520,400L530,400L530,410L520,410ZM530,410L540,410L540,420L530,420L530,410ZM530,420L530,430L520,430L520,420L530,420ZM510,420L510,430L500,430L500,420L510,420ZM570,450L580,450L580,460L570,460L570,450ZM580,460L590,460L590,470L580,470L580,460ZM580,470L580,480L570,480L570,470L580,470ZM570,470L560,470L560,460L570,460L570,470ZM540,410L540,400L550,400L550,410L540,410ZM560,430L560,420L570,420L570,430L560,430ZM580,450L580,440L590,440L590,450L580,450ZM510,410L500,410L500,400L510,400L510,410ZM560,440L570,440L570,450L560,450L560,440ZM550,430L560,430L560,440L550,440L550,430ZM580,410L580,400L590,400L590,410L580,410ZM570,410L560,410L560,400L570,400L570,410ZM570,420L570,410L580,410L580,420L570,420ZM580,420L590,420L590,430L580,430L580,420ZM1200,470L1200,460L1210,460L1210,470L1200,470ZM1190,470L1200,470L1200,480L1190,480L1190,470ZM1210,450L1200,450L1200,440L1210,440L1210,450ZM1210,460L1210,450L1220,450L1220,460L1210,460ZM1190,470L1180,470L1180,460L1190,460L1190,470ZM1410,460L1410,470L1400,470L1400,460L1410,460ZM1410,460L1410,450L1420,450L1420,460L1410,460ZM1420,460L1430,460L1430,470L1420,470L1420,460ZM1420,450L1420,440L1430,440L1430,450L1420,450ZM190,390L200,390L200,400L190,400L190,390ZM200,400L210,400L210,410L200,410L200,400ZM210,410L220,410L220,420L210,420L210,410ZM220,410L220,400L230,400L230,410L220,410ZM230,410L240,410L240,420L230,420L230,410ZM240,410L240,400L250,400L250,410L240,410ZM250,410L260,410L260,420L250,420L250,410ZM250,420L250,430L240,430L240,420L250,420ZM250,430L260,430L260,440L250,440L250,430ZM250,440L250,450L240,450L240,440L250,440ZM250,450L260,450L260,460L250,460L250,450ZM260,460L270,460L270,470L260,470L260,460ZM270,460L270,450L280,450L280,460L270,460ZM280,460L290,460L290,470L280,470L280,460ZM290,460L290,450L300,450L300,460L290,460ZM300,460L310,460L310,470L300,470L300,460ZM310,460L310,450L320,450L320,460L310,460ZM320,460L330,460L330,470L320,470L320,460ZM330,460L330,450L340,450L340,460L330,460ZM340,460L350,460L350,470L340,470L340,460ZM340,470L340,480L350,480L350,490L340,490L340,500L330,500L330,490L320,490L320,480L330,480L330,470L340,470ZM340,500L350,500L350,510L340,510L340,500ZM340,510L340,520L350,520L350,530L320,530L320,520L330,520L330,510L340,510ZM320,520L310,520L310,510L300,510L300,500L310,500L310,490L320,490L320,500L330,500L330,510L320,510L320,520ZM310,520L310,530L280,530L280,520L290,520L290,510L300,510L300,520L310,520ZM280,520L270,520L270,490L280,490L280,500L290,500L290,510L280,510L280,520ZM270,490L260,490L260,480L270,480L270,490ZM260,480L250,480L250,470L260,470L260,480ZM250,470L240,470L240,460L250,460L250,470ZM240,470L240,480L230,480L230,470L240,470ZM230,470L220,470L220,460L230,460L230,470ZM230,460L230,450L240,450L240,460L230,460ZM230,450L220,450L220,440L230,440L230,450ZM220,440L210,440L210,430L220,430L220,440ZM210,430L200,430L200,420L210,420L210,430ZM200,420L190,420L190,410L200,410L200,420ZM190,420L190,430L180,430L180,420L190,420ZM180,420L170,420L170,410L180,410L180,420ZM180,410L180,400L190,400L190,410L180,410ZM220,420L230,420L230,430L220,430L220,420ZM230,430L240,430L240,440L230,440L230,430ZM270,470L280,470L280,480L270,480L270,470ZM290,470L300,470L300,480L310,480L310,490L300,490L300,500L290,500L290,490L280,490L280,480L290,480L290,470ZM310,470L320,470L320,480L310,480L310,470ZM180,370L180,360L190,360L190,370L180,370ZM180,380L190,380L190,390L180,390L180,380ZM200,390L200,380L210,380L210,390L200,390ZM190,360L190,350L200,350L200,360L190,360ZM200,360L210,360L210,370L200,370L200,360ZM180,380L170,380L170,370L180,370L180,380ZM1000,480L990,480L990,470L1000,470L1000,480ZM1000,470L1000,460L1010,460L1010,470L1000,470ZM1010,460L1010,450L1020,450L1020,460L1010,460ZM760,520L750,520L750,510L760,510L760,520ZM760,510L760,500L770,500L770,510L760,510ZM770,510L780,510L780,520L790,520L790,530L780,530L780,540L770,540L770,530L760,530L760,520L770,520L770,510ZM780,510L780,500L790,500L790,510L780,510ZM790,510L800,510L800,520L790,520L790,510ZM800,510L800,500L810,500L810,510L800,510ZM810,510L820,510L820,520L810,520L810,510ZM820,510L820,500L830,500L830,510L820,510ZM830,510L840,510L840,520L830,520L830,510ZM840,510L840,500L850,500L850,510L840,510ZM850,510L860,510L860,520L870,520L870,530L860,530L860,540L850,540L850,530L840,530L840,520L850,520L850,510ZM860,510L860,500L870,500L870,510L860,510ZM870,510L880,510L880,520L870,520L870,510ZM880,510L880,500L890,500L890,510L880,510ZM890,510L900,510L900,520L890,520L890,510ZM900,510L900,500L910,500L910,510L900,510ZM910,510L920,510L920,520L910,520L910,510ZM920,510L920,500L930,500L930,510L920,510ZM930,510L940,510L940,520L930,520L930,510ZM940,510L940,500L950,500L950,510L940,510ZM950,510L960,510L960,520L950,520L950,510ZM960,510L960,500L970,500L970,510L960,510ZM970,510L980,510L980,520L970,520L970,510ZM980,510L980,500L990,500L990,510L980,510ZM990,500L990,490L1000,490L1000,500L990,500ZM1000,490L1000,480L1010,480L1010,490L1000,490ZM1010,490L1020,490L1020,500L1010,500L1010,490ZM1010,500L1010,510L1000,510L1000,500L1010,500ZM1010,510L1020,510L1020,520L1010,520L1010,510ZM1010,520L1010,530L1000,530L1000,520L1010,520ZM1000,520L990,520L990,510L1000,510L1000,520ZM990,520L990,530L980,530L980,520L990,520ZM980,530L980,540L970,540L970,530L980,530ZM970,540L970,550L960,550L960,540L970,540ZM970,550L980,550L980,580L970,580L970,570L960,570L960,560L970,560L970,550ZM960,570L960,580L950,580L950,570L960,570ZM950,570L940,570L940,580L930,580L930,570L920,570L920,560L930,560L930,550L940,550L940,560L950,560L950,570ZM920,570L920,580L910,580L910,570L920,570ZM910,570L900,570L900,580L890,580L890,570L880,570L880,560L890,560L890,550L900,550L900,560L910,560L910,570ZM880,570L880,580L870,580L870,570L880,570ZM870,570L860,570L860,580L850,580L850,570L840,570L840,560L850,560L850,550L860,550L860,560L870,560L870,570ZM840,570L840,580L830,580L830,570L840,570ZM830,570L820,570L820,580L810,580L810,570L800,570L800,560L810,560L810,550L820,550L820,560L830,560L830,570ZM800,570L800,580L790,580L790,570L800,570ZM790,570L780,570L780,580L770,580L770,570L760,570L760,560L770,560L770,550L780,550L780,560L790,560L790,570ZM760,560L750,560L750,550L760,550L760,560ZM760,550L760,540L770,540L770,550L760,550ZM760,540L750,540L750,530L760,530L760,540ZM780,540L790,540L790,550L780,550L780,540ZM790,540L790,530L800,530L800,540L790,540ZM800,520L810,520L810,530L800,530L800,520ZM820,520L830,520L830,530L820,530L820,520ZM810,530L820,530L820,540L810,540L810,530ZM830,530L840,530L840,540L830,540L830,530ZM860,540L870,540L870,550L860,550L860,540ZM870,540L870,530L880,530L880,540L870,540ZM850,540L850,550L840,550L840,540L850,540ZM880,520L890,520L890,530L880,530L880,520ZM900,520L910,520L910,530L900,530L900,520ZM890,530L900,530L900,540L890,540L890,530ZM920,520L930,520L930,530L920,530L920,520ZM910,530L920,530L920,540L910,540L910,530ZM940,520L950,520L950,530L940,530L940,520ZM930,530L940,530L940,540L930,540L930,530ZM960,520L970,520L970,530L960,530L960,520ZM950,530L960,530L960,540L950,540L950,530ZM960,550L960,560L950,560L950,550L960,550ZM950,540L950,550L940,550L940,540L950,540ZM930,550L920,550L920,540L930,540L930,550ZM920,550L920,560L910,560L910,550L920,550ZM910,550L900,550L900,540L910,540L910,550ZM890,550L880,550L880,540L890,540L890,550ZM880,550L880,560L870,560L870,550L880,550ZM840,550L840,560L830,560L830,550L840,550ZM830,550L820,550L820,540L830,540L830,550ZM810,550L800,550L800,540L810,540L810,550ZM800,550L800,560L790,560L790,550L800,550ZM760,570L760,580L750,580L750,570L760,570ZM1340,460L1350,460L1350,470L1340,470L1340,460ZM1340,460L1330,460L1330,450L1340,450L1340,460ZM420,500L430,500L430,490L440,490L440,500L450,500L450,510L440,510L440,520L430,520L430,510L420,510L420,500ZM450,500L450,490L460,490L460,500L450,500ZM460,500L470,500L470,510L460,510L460,500ZM470,500L470,490L480,490L480,500L470,500ZM480,500L490,500L490,510L480,510L480,500ZM480,510L480,520L470,520L470,510L480,510ZM480,520L490,520L490,530L480,530L480,520ZM480,530L480,540L490,540L490,550L480,550L480,560L490,560L490,570L410,570L410,550L420,550L420,560L430,560L430,550L420,550L420,540L430,540L430,530L440,530L440,540L450,540L450,550L440,550L440,560L450,560L450,550L460,550L460,560L470,560L470,550L460,550L460,540L470,540L470,530L480,530ZM420,540L410,540L410,510L420,510L420,520L430,520L430,530L420,530L420,540ZM440,520L450,520L450,510L460,510L460,520L470,520L470,530L460,530L460,540L450,540L450,530L440,530L440,520ZM420,500L410,500L410,490L420,490L420,500ZM670,500L670,490L680,490L680,500L670,500ZM610,510L600,510L600,500L610,500L610,510ZM610,500L610,490L620,490L620,500L610,500ZM620,500L630,500L630,510L620,510L620,500ZM630,500L630,490L640,490L640,500L630,500ZM640,500L650,500L650,510L640,510L640,500ZM650,500L650,490L660,490L660,500L650,500ZM660,500L670,500L670,510L660,510L660,500ZM670,510L680,510L680,520L670,520L670,510ZM670,520L670,530L660,530L660,540L650,540L650,530L640,530L640,520L650,520L650,510L660,510L660,520L670,520ZM670,530L680,530L680,540L670,540L670,530ZM670,540L670,550L660,550L660,540L670,540ZM670,550L680,550L680,570L640,570L640,560L650,560L650,550L660,550L660,560L670,560L670,550ZM640,560L630,560L630,550L620,550L620,540L630,540L630,530L640,530L640,540L650,540L650,550L640,550L640,560ZM630,560L630,570L600,570L600,560L610,560L610,550L620,550L620,560L630,560ZM610,550L600,550L600,540L610,540L610,550ZM610,540L610,530L600,530L600,520L610,520L610,510L620,510L620,520L630,520L630,530L620,530L620,540L610,540ZM630,510L640,510L640,520L630,520L630,510ZM1160,560L1170,560L1170,570L1160,570L1160,560ZM1100,500L1110,500L1110,510L1100,510L1100,500ZM1110,500L1110,490L1120,490L1120,500L1110,500ZM1120,500L1130,500L1130,510L1120,510L1120,500ZM1130,500L1130,490L1140,490L1140,500L1130,500ZM1140,500L1150,500L1150,510L1140,510L1140,500ZM1150,500L1150,490L1160,490L1160,500L1150,500ZM1160,500L1170,500L1170,510L1160,510L1160,500ZM1160,510L1160,520L1150,520L1150,510L1160,510ZM1160,520L1170,520L1170,530L1160,530L1160,520ZM1160,530L1160,540L1150,540L1150,530L1160,530ZM1160,540L1170,540L1170,550L1160,550L1160,540ZM1160,550L1160,560L1150,560L1150,550L1160,550ZM1150,560L1150,570L1120,570L1120,560L1130,560L1130,550L1140,550L1140,560L1150,560ZM1120,560L1110,560L1110,550L1120,550L1120,560ZM1110,560L1110,570L1090,570L1090,550L1100,550L1100,560L1110,560ZM1100,550L1100,540L1110,540L1110,550L1100,550ZM1100,540L1090,540L1090,530L1100,530L1100,540ZM1100,530L1100,520L1110,520L1110,530L1100,530ZM1110,520L1110,510L1120,510L1120,520L1110,520ZM1130,510L1140,510L1140,520L1130,520L1130,510ZM1120,520L1130,520L1130,530L1120,530L1120,520ZM1140,520L1150,520L1150,530L1140,530L1140,520ZM1150,540L1150,550L1140,550L1140,540L1150,540ZM1140,530L1140,540L1130,540L1130,530L1140,530ZM1130,550L1120,550L1120,540L1130,540L1130,550ZM1120,540L1110,540L1110,530L1120,530L1120,540ZM1100,500L1090,500L1090,490L1100,490L1100,500ZM1360,510L1360,500L1370,500L1370,510L1360,510ZM1340,490L1340,480L1350,480L1350,490L1340,490ZM1390,510L1400,510L1400,520L1390,520L1390,510ZM1400,520L1410,520L1410,530L1400,530L1400,520ZM1390,520L1390,530L1380,530L1380,520L1390,520ZM1350,510L1360,510L1360,520L1350,520L1350,510ZM1340,500L1330,500L1330,490L1340,490L1340,500ZM1350,520L1350,530L1340,530L1340,520L1350,520ZM1370,490L1360,490L1360,480L1370,480L1370,490ZM1380,490L1380,480L1390,480L1390,490L1380,490ZM1370,500L1370,490L1380,490L1380,500L1370,500ZM1380,500L1390,500L1390,510L1380,510L1380,500ZM1400,510L1400,500L1410,500L1410,510L1400,510ZM1360,520L1370,520L1370,530L1360,530L1360,520ZM1340,500L1350,500L1350,510L1340,510L1340,500ZM350,260L350,270L340,270L340,260L350,260ZM670,260L670,270L660,270L660,260L670,260ZM330,280L330,290L320,290L320,280L330,280ZM350,280L350,290L340,290L340,280L350,280ZM850,280L850,290L840,290L840,280L850,280ZM890,280L890,290L880,290L880,280L890,280ZM930,280L930,290L920,290L920,280L930,280ZM350,300L350,310L340,310L340,300L350,300ZM670,300L670,310L660,310L660,300L670,300ZM670,320L670,330L660,330L660,320L670,320ZM1250,320L1250,330L1240,330L1240,320L1250,320ZM1370,320L1370,330L1360,330L1360,320L1370,320ZM510,360L510,370L500,370L500,360L510,360ZM1490,360L1490,370L1480,370L1480,360L1490,360ZM510,380L510,390L500,390L500,380L510,380ZM1510,380L1510,390L1500,390L1500,380L1510,380ZM1190,400L1190,410L1180,410L1180,400L1190,400ZM1210,400L1210,410L1200,410L1200,400L1210,400ZM1430,400L1430,410L1420,410L1420,400L1430,400ZM1450,400L1450,410L1440,410L1440,400L1450,400ZM1470,400L1470,410L1460,410L1460,400L1470,400ZM1490,400L1490,410L1480,410L1480,400L1490,400ZM1510,400L1510,410L1500,410L1500,400L1510,400ZM1190,420L1190,430L1180,430L1180,420L1190,420ZM1210,420L1210,430L1200,430L1200,420L1210,420ZM1430,420L1430,430L1420,430L1420,420L1430,420ZM1450,420L1450,430L1440,430L1440,420L1450,420ZM1470,420L1470,430L1460,430L1460,420L1470,420ZM1510,420L1510,430L1500,430L1500,420L1510,420ZM1190,440L1190,450L1180,450L1180,440L1190,440ZM1450,440L1450,450L1440,450L1440,440L1450,440ZM1370,460L1370,470L1360,470L1360,460L1370,460ZM1390,460L1390,470L1380,470L1380,460L1390,460ZM1450,460L1450,470L1440,470L1440,460L1450,460ZM1410,480L1410,490L1400,490L1400,480L1410,480Z" style="fill:#0da344;stroke:#0da344;stroke-width:0.12px;"/>
    <path d="M210,350L220,350L220,390L210,390L210,350ZM210,350L160,350L160,330L170,330L170,340L210,340L210,350ZM310,350L300,350L300,330L310,330L310,350ZM310,350L360,350L360,390L350,390L350,360L310,360L310,350ZM650,350L640,350L640,330L650,330L650,350ZM650,350L690,350L690,390L680,390L680,360L650,360L650,350ZM1080,390L1080,350L1130,350L1130,360L1090,360L1090,390L1080,390ZM1130,350L1130,330L1140,330L1140,350L1130,350ZM1320,390L1320,350L1370,350L1370,360L1330,360L1330,390L1320,390ZM1370,350L1370,330L1380,330L1380,350L1370,350ZM1470,350L1470,340L1510,340L1510,330L1520,330L1520,350L1470,350ZM1470,350L1470,390L1460,390L1460,350L1470,350ZM500,350L500,340L550,340L550,350L500,350ZM500,350L500,390L490,390L490,350L500,350ZM550,350L560,350L560,390L550,390L550,350ZM410,330L410,390L400,390L400,330L410,330ZM750,330L750,390L740,390L740,330L750,330ZM840,330L840,390L830,390L830,330L840,330ZM940,330L940,390L930,390L930,330L940,330ZM1030,330L1030,390L1020,390L1020,330L1030,330ZM1230,330L1230,390L1220,390L1220,330L1230,330Z" style="fill:rgb(86,255,80);"/>
    <path d="M260,400L210,400L210,390L260,390L260,400ZM260,400L270,400L270,440L350,440L350,390L360,390L360,450L260,450L260,400ZM500,490L400,490L400,390L410,390L410,480L490,480L490,390L500,390L500,490ZM590,400L550,400L550,390L590,390L590,400ZM590,400L600,400L600,480L680,480L680,390L690,390L690,490L590,490L590,400ZM840,400L930,400L930,410L840,410L840,400ZM840,400L830,400L830,390L840,390L840,400ZM930,400L930,390L940,390L940,400L930,400ZM990,450L990,440L1020,440L1020,390L1030,390L1030,450L990,450ZM990,500L740,500L740,390L750,390L750,490L980,490L980,450L990,450L990,500ZM1180,400L1180,390L1230,390L1230,400L1180,400ZM1180,490L1080,490L1080,390L1090,390L1090,480L1170,480L1170,400L1180,400L1180,490ZM1420,400L1420,390L1470,390L1470,400L1420,400ZM1420,450L1320,450L1320,390L1330,390L1330,440L1410,440L1410,400L1420,400L1420,450Z" style="fill:rgb(10,247,0);"/>
</svg>
